<?xml version="1.0" encoding="utf-8"?>
<!-- Generator: Adobe Illustrator 26.0.1, SVG Export Plug-In . SVG Version: 6.00 Build 0)  -->
<svg version="1.1" id="Layer_1" xmlns="http://www.w3.org/2000/svg" xmlns:xlink="http://www.w3.org/1999/xlink" x="0px" y="0px"
	 viewBox="0 0 120 120" style="enable-background:new 0 0 120 120;" xml:space="preserve">
<style type="text/css">
	.st0{fill:#1D38FF;}
</style>
<g>
	<path class="st0" d="M106.05,37.62H28.38c-4.29,0-7.77-3.48-7.77-7.77v0c0-4.29,3.48-7.77,7.77-7.77h77.67
		c4.29,0,7.77,3.48,7.77,7.77v0C113.82,34.14,110.34,37.62,106.05,37.62z"/>
	<path class="st0" d="M92.38,68.24H14.71c-4.29,0-7.77-3.48-7.77-7.77v0c0-4.29,3.48-7.77,7.77-7.77h77.67
		c4.29,0,7.77,3.48,7.77,7.77v0C100.15,64.77,96.67,68.24,92.38,68.24z"/>
	<path class="st0" d="M106.05,98.87H28.38c-4.29,0-7.77-3.48-7.77-7.77v0c0-4.29,3.48-7.77,7.77-7.77h77.67
		c4.29,0,7.77,3.48,7.77,7.77v0C113.82,95.39,110.34,98.87,106.05,98.87z"/>
</g>
</svg>
